<?xml version="1.0" encoding="utf-8"?>
<!-- Generator: Adobe Illustrator 16.0.3, SVG Export Plug-In . SVG Version: 6.00 Build 0)  -->
<!DOCTYPE svg PUBLIC "-//W3C//DTD SVG 1.1//EN" "http://www.w3.org/Graphics/SVG/1.1/DTD/svg11.dtd">
<svg version="1.1" xmlns="http://www.w3.org/2000/svg" xmlns:xlink="http://www.w3.org/1999/xlink" x="0px" y="0px" width="957.5px"
	 height="408.917px" viewBox="0 0 957.5 408.917" enable-background="new 0 0 957.5 408.917" xml:space="preserve">
<g id="Capa_2">
</g>
<g id="Capa_1">
	<g>
		<g>
			<path fill="#414549" d="M513.218,213.817v-90.05c0-30.019-25.348-45.36-52.03-45.36c-32.351,0-52.695,25.681-52.695,56.032
				c0,29.684,21.68,54.701,52.361,54.701c16.675,0,19.189-6.325,26.843-6.325c5.569,0,17.073,0.264,17.073,13.988
				c0,3.286-1.601,5.108-3.292,6.799c-0.569,0.569-23.282,13.549-43.623,13.549c-46.028,0-78.714-38.02-78.714-85.047
				c0-45.691,31.353-81.714,82.713-81.714c49.361,0,80.714,30.022,80.714,76.047v77.799v9.899
				C538.67,214.134,513.218,213.817,513.218,213.817z"/>
		</g>
		<g>
			<path fill="#5DC1A3" d="M87.483,82.089H30.084v84.094c0,15.019,7.012,20.025,22.025,20.025h35.373v28.029H48.107
				c-30.033,0-47.388-20.025-47.388-51.725V32.188c0,0,1.11-8.244,6.443-12.651c5.334-4.406,22.306-5.521,22.306-5.521h0.616v40.042
				h57.398V82.089z"/>
			<path fill="#5DC1A3" d="M154.556,161.512l-12.011-23.358l79.083-44.05c-10.009-10.009-18.35-15.35-36.371-15.35
				c-30.366,0-52.391,22.692-52.391,55.394c0,32.704,22.025,55.396,52.391,55.396c34.705,0,47.721-20.691,53.726-50.056l29.7,3.671
				c-3.339,42.38-37.373,74.414-83.426,74.414c-44.383,0-83.092-34.038-83.092-83.425c0-49.386,38.708-83.423,83.092-83.423
				c37.375,0,62.402,19.69,77.416,50.721L154.556,161.512z"/>
			<path fill="#5DC1A3" d="M296.745,58.778c4.481-4.691,17.728-4.72,17.728-4.72h5.935v18.357h0.667
				c10.013-15.686,23.694-21.69,43.383-21.69h6.671v28.029h-4.336c-28.364,0-45.05,17.354-45.05,60.734v74.75h-29.366V72.443
				C292.376,72.443,291.931,63.815,296.745,58.778z"/>
			<path fill="#5DC1A3" d="M569.354,286.314V138.821c0-52.726,33.7-88.097,80.754-88.097c52.059,0,82.757,40.042,82.757,87.43
				c0,44.712-36.04,79.418-77.082,79.418c-16.021,0-48.964-10.343-62.981-18.354v-30.7c10.679,7.34,44.623,21.024,57.973,21.024
				c31.702,0,52.728-22.024,52.728-55.06c0-32.704-22.025-55.729-53.394-55.729c-28.031,0-51.387,21.357-51.387,65.405v142.156
				H569.354z"/>
			<path fill="#5DC1A3" d="M787.929,0.669c11.346,0,17.688,8.676,17.688,17.685c0,9.013-6.341,17.688-17.688,17.688
				c-11.345,0-17.685-8.675-17.685-17.688C770.244,9.345,776.583,0.669,787.929,0.669z M773.246,214.238V74.215
				c0,0,0.348-9.241,5.735-14.395c5.388-5.152,16.617-5.762,16.617-5.762h7.014v160.18H773.246z"/>
			<path fill="#5DC1A3" d="M957.115,82.089h-22.692c-27.694,0-55.058,18.021-55.058,52.059c0,34.038,27.364,52.061,55.058,52.061
				h22.692v28.029h-28.029c-37.373,0-80.421-28.699-80.421-80.09c0-51.39,43.048-80.09,80.421-80.09h28.029V82.089z"/>
			<g>
			</g>
		</g>
	</g>
	<g>
		<path fill="#414549" d="M11.449,327.135v57.17H8.342v-57.17H0.91v-2.95h7.432V318.4c0-19.397,14.199-19.51,14.976-19.51v2.949
			c-6.767,0.567-11.87,4.764-11.87,16.675v5.671h18.858v60.12h-3.106v-57.17H11.449z M27.201,310.687v-10.322h3.106v10.322H27.201z"
			/>
		<path fill="#414549" d="M70.799,338.364c0-9.642-5.214-12.705-11.537-12.705c-6.212,0-10.871,4.765-10.871,11.684
			c0,7.827,4.881,11.457,12.313,13.725c6.323,1.929,14.532,6.012,14.532,17.923c0,10.209-6.767,16.788-15.53,16.788
			c-10.316,0-16.307-6.579-16.307-18.149h2.884c0,10.436,5.546,15.2,13.201,15.2s12.646-5.332,12.646-13.385
			c0-8.621-3.994-12.818-12.535-15.654c-7.987-2.609-14.31-6.353-14.31-16.334c0-9.302,6.877-14.747,14.088-14.747
			c8.32,0,14.31,4.878,14.31,15.654H70.799z"/>
		<path fill="#414549" d="M88.883,300.364h3.106v10.209h-3.106V300.364z M88.883,324.185h3.106v60.12h-3.106V324.185z"/>
		<path fill="#414549" d="M104.969,354.132c0-17.015,6.767-31.421,22.741-31.421c15.863,0,22.63,14.406,22.63,31.535
			s-6.767,31.535-22.63,31.535c-15.974,0-22.741-14.406-22.741-31.535V354.132z M108.075,354.358
			c0,17.015,6.434,28.472,19.635,28.472c13.09,0,19.524-11.457,19.524-28.585S140.8,325.66,127.71,325.66
			c-13.201,0-19.635,11.457-19.635,28.585V354.358z"/>
		<path fill="#414549" d="M166.428,327.135h-9.429v-2.95h9.429v-23.821h3.106v23.821h9.429v2.95h-9.429v57.17h-3.106V327.135z"/>
		<path fill="#414549" d="M187.063,354.585c0,16.675,7.1,28.245,19.413,28.245c9.207,0,15.086-6.579,16.861-14.747h2.884
			c-0.999,4.764-3.217,9.188-6.545,12.478c-3.328,3.176-7.654,5.218-13.201,5.218c-16.751,0-22.52-17.128-22.52-31.421
			c0-19.51,9.318-31.648,22.076-31.648c6.323,0,11.537,2.949,14.976,7.714c4.992,6.806,5.99,15.88,5.99,24.161H187.063z
			 M223.892,351.636c-0.444-18.036-8.32-25.977-18.415-25.977c-10.872,0-18.082,11.797-18.415,25.977H223.892z"/>
		<path fill="#414549" d="M239.092,324.185h3.106c0,7.487,0,11.344-0.333,15.654c3.328-14.406,12.424-16.901,16.085-17.128v2.949
			h-0.555c-4.77,0-15.198,7.374-15.198,28.245v30.4h-3.106V324.185z"/>
		<path fill="#414549" d="M303.545,384.305h-3.106c0-7.487,0-11.57,0.222-15.087c-2.663,10.209-9.429,16.562-18.082,16.562
			c-12.535,0-20.522-14.292-20.522-31.421c0-17.469,7.987-31.648,20.522-31.648c7.654,0,14.31,4.311,18.082,16.562
			c-0.222-4.651-0.222-8.961-0.222-15.087h3.106V384.305z M265.163,354.358c0,13.839,5.879,28.472,17.638,28.472
			c5.879,0,10.316-3.63,13.201-9.075c2.995-5.445,4.437-12.591,4.437-19.511c0-7.033-1.442-14.179-4.437-19.511
			c-2.884-5.445-7.322-9.075-13.201-9.075c-11.759,0-17.638,14.633-17.638,28.585V354.358z"/>
		<path fill="#414549" d="M319.3,324.185h3.106c0,6.125,0,10.436-0.222,15.087c3.771-12.251,10.428-16.562,18.082-16.562
			c12.535,0,20.522,14.179,20.522,31.648c0,17.129-7.987,31.421-20.522,31.421c-8.653,0-15.419-6.352-18.082-16.562
			c0.222,3.517,0.222,7.6,0.222,15.087v24.162H319.3V324.185z M357.682,354.132c0-13.839-5.879-28.472-17.638-28.472
			c-5.879,0-10.316,3.63-13.201,9.075c-2.995,5.332-4.438,12.478-4.438,19.511c0,6.919,1.442,14.066,4.438,19.511
			c2.884,5.445,7.321,9.075,13.201,9.075c11.759,0,17.638-14.633,17.638-28.585V354.132z"/>
		<path fill="#414549" d="M373.77,300.364h3.106v10.209h-3.106V300.364z M373.77,324.185h3.106v60.12h-3.106V324.185z"/>
		<path fill="#414549" d="M431.344,384.305h-3.106c0-7.487,0-11.57,0.222-15.087c-2.663,10.209-9.429,16.562-18.082,16.562
			c-12.535,0-20.522-14.292-20.522-31.421c0-17.469,7.987-31.648,20.522-31.648c7.654,0,14.31,4.311,18.082,16.562
			c-0.222-4.651-0.222-8.961-0.222-15.087h3.106V384.305z M392.962,354.358c0,13.839,5.879,28.472,17.638,28.472
			c5.879,0,10.316-3.63,13.201-9.075c2.995-5.445,4.437-12.591,4.437-19.511c0-7.033-1.442-14.179-4.437-19.511
			c-2.884-5.445-7.321-9.075-13.201-9.075c-11.759,0-17.638,14.633-17.638,28.585V354.358z"/>
		<path fill="#414549" d="M482.375,384.305l-17.638-60.12h3.217l15.974,56.15l17.638-56.15h2.995l-27.067,84.282H474.5
			L482.375,384.305z"/>
		<path fill="#414549" d="M534.515,354.132c0-17.015,6.767-31.421,22.741-31.421c15.863,0,22.63,14.406,22.63,31.535
			s-6.767,31.535-22.63,31.535c-15.974,0-22.741-14.406-22.741-31.535V354.132z M537.621,354.358
			c0,17.015,6.434,28.472,19.635,28.472c13.09,0,19.524-11.457,19.524-28.585s-6.434-28.585-19.524-28.585
			c-13.201,0-19.635,11.457-19.635,28.585V354.358z"/>
		<path fill="#414549" d="M617.051,338.364c0-9.642-5.214-12.705-11.537-12.705c-6.212,0-10.871,4.765-10.871,11.684
			c0,7.827,4.881,11.457,12.313,13.725c6.323,1.929,14.532,6.012,14.532,17.923c0,10.209-6.767,16.788-15.53,16.788
			c-10.316,0-16.307-6.579-16.307-18.149h2.884c0,10.436,5.547,15.2,13.201,15.2s12.646-5.332,12.646-13.385
			c0-8.621-3.994-12.818-12.535-15.654c-7.987-2.609-14.31-6.353-14.31-16.334c0-9.302,6.877-14.747,14.088-14.747
			c8.32,0,14.31,4.878,14.31,15.654H617.051z"/>
		<path fill="#414549" d="M638.242,327.135h-9.429v-2.95h9.429v-23.821h3.106v23.821h9.429v2.95h-9.429v57.17h-3.106V327.135z"/>
		<path fill="#414549" d="M658.876,354.585c0,16.675,7.1,28.245,19.413,28.245c9.207,0,15.086-6.579,16.861-14.747h2.884
			c-0.999,4.764-3.217,9.188-6.545,12.478c-3.328,3.176-7.654,5.218-13.201,5.218c-16.751,0-22.52-17.128-22.52-31.421
			c0-19.51,9.318-31.648,22.076-31.648c6.323,0,11.537,2.949,14.976,7.714c4.992,6.806,5.99,15.88,5.99,24.161H658.876z
			 M695.705,351.636c-0.444-18.036-8.32-25.977-18.415-25.977c-10.872,0-18.082,11.797-18.415,25.977H695.705z"/>
		<path fill="#414549" d="M707.578,354.132c0-17.015,6.767-31.421,22.741-31.421c15.863,0,22.63,14.406,22.63,31.535
			s-6.767,31.535-22.63,31.535c-15.974,0-22.741-14.406-22.741-31.535V354.132z M710.684,354.358
			c0,17.015,6.434,28.472,19.635,28.472c13.09,0,19.524-11.457,19.524-28.585s-6.434-28.585-19.524-28.585
			c-13.201,0-19.635,11.457-19.635,28.585V354.358z"/>
		<path fill="#414549" d="M765.376,324.185h3.106c0,6.125,0,10.436-0.222,15.087c3.771-12.251,10.428-16.562,18.082-16.562
			c12.535,0,20.522,14.179,20.522,31.648c0,17.129-7.987,31.421-20.522,31.421c-8.653,0-15.42-6.352-18.082-16.562
			c0.222,3.517,0.222,7.6,0.222,15.087v24.162h-3.106V324.185z M803.759,354.132c0-13.839-5.879-28.472-17.638-28.472
			c-5.879,0-10.316,3.63-13.201,9.075c-2.995,5.332-4.438,12.478-4.438,19.511c0,6.919,1.442,14.066,4.438,19.511
			c2.884,5.445,7.321,9.075,13.201,9.075c11.759,0,17.638-14.633,17.638-28.585V354.132z"/>
		<path fill="#414549" d="M857.452,384.305h-3.106c0-7.487,0-11.57,0.222-15.087c-2.663,10.209-9.429,16.562-18.082,16.562
			c-12.535,0-20.522-14.292-20.522-31.421c0-17.469,7.987-31.648,20.522-31.648c7.654,0,14.31,4.311,18.082,16.562
			c-0.222-4.651-0.222-8.961-0.222-15.087h3.106V384.305z M819.07,354.358c0,13.839,5.879,28.472,17.638,28.472
			c5.879,0,10.316-3.63,13.201-9.075c2.995-5.445,4.437-12.591,4.437-19.511c0-7.033-1.442-14.179-4.437-19.511
			c-2.884-5.445-7.322-9.075-13.201-9.075c-11.759,0-17.638,14.633-17.638,28.585V354.358z"/>
		<path fill="#414549" d="M876.868,327.135h-9.429v-2.95h9.429v-23.821h3.106v23.821h9.429v2.95h-9.429v57.17h-3.106V327.135z"/>
		<path fill="#414549" d="M913.92,299.684l1.553,2.609l-24.183,14.52l-1.442-2.609L913.92,299.684z M899.942,324.185h3.106v60.12
			h-3.106V324.185z"/>
		<path fill="#414549" d="M957.517,384.305h-3.106c0-7.487,0-11.57,0.222-15.087c-2.662,10.209-9.429,16.562-18.081,16.562
			c-12.536,0-20.522-14.292-20.522-31.421c0-17.469,7.986-31.648,20.522-31.648c7.654,0,14.31,4.311,18.081,16.562
			c-0.222-4.651-0.222-8.961-0.222-15.087h3.106V384.305z M919.134,354.358c0,13.839,5.88,28.472,17.639,28.472
			c5.879,0,10.316-3.63,13.2-9.075c2.995-5.445,4.438-12.591,4.438-19.511c0-7.033-1.442-14.179-4.438-19.511
			c-2.884-5.445-7.321-9.075-13.2-9.075c-11.759,0-17.639,14.633-17.639,28.585V354.358z"/>
	</g>
	<g>
		<g>
			<path fill="#88E6A4" d="M1837.507,213.817v-90.05c0-30.019-25.348-45.36-52.029-45.36c-32.352,0-52.695,25.681-52.695,56.032
				c0,29.684,21.68,54.701,52.361,54.701c16.676,0,19.189-6.325,26.843-6.325c5.569,0,17.073,0.264,17.073,13.988
				c0,3.286-1.602,5.108-3.293,6.799c-0.568,0.569-23.281,13.549-43.623,13.549c-46.027,0-78.713-38.02-78.713-85.047
				c0-45.691,31.352-81.714,82.713-81.714c49.361,0,80.715,30.022,80.715,76.047v77.799v9.899
				C1862.959,214.134,1837.507,213.817,1837.507,213.817z"/>
		</g>
		<g>
			<path fill="#5DC1A3" d="M1411.772,82.089h-57.398v84.094c0,15.019,7.012,20.025,22.025,20.025h35.373v28.029h-39.376
				c-30.033,0-47.388-20.025-47.388-51.725V32.188c0,0,1.11-8.244,6.443-12.651c5.334-4.406,22.306-5.521,22.306-5.521h0.616v40.042
				h57.398V82.089z"/>
			<path fill="#5DC1A3" d="M1478.845,161.512l-12.011-23.358l79.083-44.05c-10.008-10.009-18.35-15.35-36.371-15.35
				c-30.365,0-52.391,22.692-52.391,55.394c0,32.704,22.025,55.396,52.391,55.396c34.705,0,47.722-20.691,53.727-50.056
				l29.699,3.671c-3.339,42.38-37.373,74.414-83.426,74.414c-44.383,0-83.092-34.038-83.092-83.425
				c0-49.386,38.709-83.423,83.092-83.423c37.376,0,62.402,19.69,77.416,50.721L1478.845,161.512z"/>
			<path fill="#5DC1A3" d="M1621.034,58.778c4.481-4.691,17.728-4.72,17.728-4.72h5.935v18.357h0.667
				c10.013-15.686,23.694-21.69,43.384-21.69h6.671v28.029h-4.336c-28.364,0-45.05,17.354-45.05,60.734v74.75h-29.367V72.443
				C1616.665,72.443,1616.22,63.815,1621.034,58.778z"/>
			<path fill="#5DC1A3" d="M1893.644,286.314V138.821c0-52.726,33.699-88.097,80.754-88.097c52.059,0,82.756,40.042,82.756,87.43
				c0,44.712-36.039,79.418-77.082,79.418c-16.021,0-48.964-10.343-62.98-18.354v-30.7c10.679,7.34,44.623,21.024,57.973,21.024
				c31.702,0,52.728-22.024,52.728-55.06c0-32.704-22.025-55.729-53.394-55.729c-28.031,0-51.388,21.357-51.388,65.405v142.156
				H1893.644z"/>
			<path fill="#5DC1A3" d="M2112.218,0.669c11.346,0,17.688,8.676,17.688,17.685c0,9.013-6.342,17.688-17.688,17.688
				s-17.686-8.675-17.686-17.688C2094.532,9.345,2100.872,0.669,2112.218,0.669z M2097.535,214.238V74.215
				c0,0,0.348-9.241,5.735-14.395c5.389-5.152,16.617-5.762,16.617-5.762h7.014v160.18H2097.535z"/>
			<path fill="#5DC1A3" d="M2281.404,82.089h-22.692c-27.694,0-55.059,18.021-55.059,52.059c0,34.038,27.364,52.061,55.059,52.061
				h22.692v28.029h-28.029c-37.373,0-80.421-28.699-80.421-80.09c0-51.39,43.048-80.09,80.421-80.09h28.029V82.089z"/>
			<g>
			</g>
		</g>
	</g>
	<g>
		<path fill="#88E6A4" d="M1331.488,300.364h3.176v10.209h-3.176V300.364z M1331.488,324.185h3.176v60.12h-3.176V324.185z"/>
		<path fill="#88E6A4" d="M1351.338,324.185h3.177c0,4.311,0,8.281-0.341,13.159c3.631-11.117,12.932-14.633,19.625-14.633
			c10.775,0,18.262,6.353,18.262,22.347v39.248h-3.176v-38.227c0-7.374-0.794-20.418-14.973-20.418
			c-11.797,0-19.397,8.735-19.397,25.977v32.669h-3.177V324.185z"/>
		<path fill="#88E6A4" d="M1409.643,327.135h-7.601v-2.95h7.601V318.4c0-19.397,14.52-19.51,15.313-19.51v2.949
			c-6.919,0.567-12.137,4.764-12.137,16.675v5.671h12.137v2.95h-12.137v57.17h-3.176V327.135z"/>
		<path fill="#88E6A4" d="M1469.987,384.305h-3.176c0-7.487,0-11.57,0.227-15.087c-2.722,10.209-9.642,16.562-18.489,16.562
			c-12.818,0-20.985-14.292-20.985-31.421c0-17.469,8.167-31.648,20.985-31.648c7.826,0,14.633,4.311,18.489,16.562
			c-0.227-4.651-0.227-8.961-0.227-15.087h3.176V384.305z M1430.739,354.358c0,13.839,6.013,28.472,18.036,28.472
			c6.012,0,10.549-3.63,13.498-9.075c3.063-5.445,4.538-12.591,4.538-19.511c0-7.033-1.475-14.179-4.538-19.511
			c-2.949-5.445-7.486-9.075-13.498-9.075c-12.023,0-18.036,14.633-18.036,28.585V354.358z"/>
		<path fill="#88E6A4" d="M1486.094,324.185h3.177c0,4.311,0,8.281-0.341,13.159c3.631-11.117,12.932-14.633,19.625-14.633
			c10.775,0,18.262,6.353,18.262,22.347v39.248h-3.176v-38.227c0-7.374-0.794-20.418-14.973-20.418
			c-11.797,0-19.397,8.735-19.397,25.977v32.669h-3.177V324.185z"/>
		<path fill="#88E6A4" d="M1546.213,327.135h-9.642v-2.95h9.642v-23.821h3.176v23.821h9.643v2.95h-9.643v57.17h-3.176V327.135z"/>
		<path fill="#88E6A4" d="M1594.535,338.364c0-9.642-5.332-12.705-11.797-12.705c-6.353,0-11.117,4.765-11.117,11.684
			c0,7.827,4.991,11.457,12.592,13.725c6.465,1.929,14.859,6.012,14.859,17.923c0,10.209-6.92,16.788-15.881,16.788
			c-10.549,0-16.675-6.579-16.675-18.149h2.949c0,10.436,5.672,15.2,13.499,15.2c7.826,0,12.932-5.332,12.932-13.385
			c0-8.621-4.084-12.818-12.818-15.654c-8.167-2.609-14.633-6.353-14.633-16.334c0-9.302,7.033-14.747,14.406-14.747
			c8.508,0,14.633,4.878,14.633,15.654H1594.535z"/>
	</g>
	<g>
	</g>
	<g>
	</g>
	<g>
	</g>
	<g>
	</g>
	<g>
	</g>
	<g>
	</g>
	<g>
	</g>
	<g>
	</g>
	<g>
	</g>
	<g>
	</g>
	<g>
	</g>
	<g>
	</g>
	<g>
	</g>
	<g>
	</g>
	<g>
	</g>
</g>
</svg>
